<?xml version="1.0" encoding="utf-8"?>
<!-- Generator: Adobe Illustrator 23.0.0, SVG Export Plug-In . SVG Version: 6.00 Build 0)  -->
<svg version="1.1" xmlns="http://www.w3.org/2000/svg" xmlns:xlink="http://www.w3.org/1999/xlink" x="0px" y="0px"
	 viewBox="0 0 150 150" style="enable-background:new 0 0 150 150;" xml:space="preserve">
<style type="text/css">
	.st0{fill:#F9A603;stroke:#000000;stroke-miterlimit:10;}
	.st1{fill:none;stroke:#000000;stroke-miterlimit:10;}
	.st2{stroke:#000000;stroke-miterlimit:10;}
	.st3{display:none;}
	.st4{display:inline;fill:none;stroke:#000000;stroke-miterlimit:10;}
</style>
<g id="Layer_1">
	<path class="st0" d="M25.11,23.99c25.15-7.79,69.64-19.1,81.18-2.19c3.02,4.42,1.68,7.69,1.46,23.4c-0.61,45.04,9.88,58.26,0,69.48
		c-3.54,4.01-13.43,6.75-33.64,9.51c-16.09,2.19-35.53,6.28-42.42,0.73c-10.09-8.12-6.91-26.49-5.12-37.3
		c1.19-7.19,1.36-12.27,1.46-21.21c0.09-7.77-3.83-15.46-5.12-24.87c-0.73-5.34-3.57-9.4-2.93-19.02"/>
	<line class="st1" x1="88.28" y1="121.99" x2="88.28" y2="144.66"/>
	<line class="st1" x1="97.42" y1="144.66" x2="88.64" y2="144.66"/>
	<line class="st1" x1="61.95" y1="126.38" x2="61.95" y2="144.66"/>
	<line class="st1" x1="52.44" y1="144.66" x2="61.95" y2="144.66"/>
	<line class="st1" x1="111.68" y1="86.15" x2="124.12" y2="98.59"/>
	<line class="st1" x1="26.84" y1="92.74" x2="18.07" y2="115.41"/>
	<circle class="st2" cx="59.76" cy="60.56" r="2.19"/>
	<circle class="st2" cx="79.5" cy="58.36" r="2.19"/>
	<path class="st1" d="M73.65,82.5c8.17,1.46,15.66-0.71,19.02-5.85c0.72-1.11,1.53-2.78,1.83-5.15"/>
	<line class="st1" x1="75.85" y1="39.35" x2="87.55" y2="40.81"/>
	<line class="st1" x1="57.56" y1="34.23" x2="47.32" y2="38.61"/>
</g>
<g id="Layer_2" class="st3">
	<path class="st4" d="M111.66,15.41c-0.67-2.62,0.43-5.22,2.47-6.24c1.54-0.77,3.71-0.68,5.07,0.56c1.41,1.28,1.36,3.25,1.34,3.9
		c-0.06,2.71-1.78,3.53-2.47,6.24c-0.33,1.28-0.49,3.25,0.52,5.98"/>
	<circle class="st4" cx="119.85" cy="28.74" r="0.5"/>
</g>
<g id="Layer_3" class="st3">
	<path class="st4" d="M127.48,25.68c0.37-1.92,1.9-3.27,3.54-3.31c1.25-0.03,2.63,0.7,3.14,1.94c0.52,1.27-0.12,2.54-0.33,2.96
		c-0.88,1.75-2.26,1.76-3.54,3.31c-0.61,0.74-1.33,1.97-1.51,4.07"/>
	<circle class="st4" cx="128.15" cy="37.29" r="0.36"/>
</g>
<g id="Layer_4" class="st3">
	<path class="st4" d="M128.98,6.03c0.22-1.34,1.25-2.32,2.39-2.38c0.87-0.05,1.84,0.43,2.22,1.27c0.39,0.87-0.03,1.77-0.16,2.06
		c-0.57,1.24-1.53,1.27-2.39,2.38c-0.41,0.52-0.88,1.4-0.96,2.86"/>
	<circle class="st4" cx="129.76" cy="14.77" r="0.25"/>
</g>
</svg>
