<?xml version="1.0" encoding="utf-8"?>
<!-- Generator: Adobe Illustrator 23.0.0, SVG Export Plug-In . SVG Version: 6.00 Build 0)  -->
<svg version="1.1" xmlns="http://www.w3.org/2000/svg" xmlns:xlink="http://www.w3.org/1999/xlink" x="0px" y="0px"
	 viewBox="0 0 150 150" style="enable-background:new 0 0 150 150;" xml:space="preserve">
<style type="text/css">
	.st0{fill:#B3C100;stroke:#000000;stroke-miterlimit:10;}
	.st1{fill:none;stroke:#000000;stroke-miterlimit:10;}
	.st2{stroke:#000000;stroke-miterlimit:10;}
	.st3{fill:none;stroke:#007BFF;stroke-miterlimit:10;}
</style>
<g id="bodyBase">
	<path class="st0" d="M30.19,19.62c25.65-7.95,71.05-19.49,82.82-2.24c3.08,4.51,1.71,7.85,1.49,23.88
		c-0.62,45.95,10.08,59.44,0,70.88c-3.61,4.09-13.7,6.89-34.32,9.7c-16.41,2.24-36.25,6.41-43.28,0.75
		c-10.29-8.29-7.05-27.02-5.22-38.05c1.22-7.34,1.39-12.51,1.49-21.64c0.09-7.93-3.91-15.77-5.22-25.37
		c-0.75-5.45-3.64-9.59-2.98-19.4"/>
	<line class="st1" x1="93.61" y1="119.6" x2="93.61" y2="142.73"/>
	<line class="st1" x1="102.94" y1="142.73" x2="93.99" y2="142.73"/>
	<line class="st1" x1="66.75" y1="124.07" x2="66.75" y2="142.73"/>
	<line class="st1" x1="57.05" y1="142.73" x2="66.75" y2="142.73"/>
	<line class="st1" x1="117.49" y1="83.04" x2="129.43" y2="74.08"/>
	<line class="st1" x1="30.94" y1="89.75" x2="21.98" y2="112.88"/>
	<circle class="st2" cx="64.51" cy="56.92" r="2.24"/>
	<circle class="st2" cx="84.66" cy="54.68" r="2.24"/>
	<path class="st2" d="M60.04,65.88c-1.15,17.84,8.46,29.82,15.67,29.85c6.99,0.03,14.27-13.31,16.41-23.88
		c0.81-3.98,0.85-7.38,0.75-9.7"/>
</g>
<g id="bodyOutline">
	<path class="st3" d="M39.11,10.86c4.35-1.07,3.45-1.22,9.83-2.95c4.86-1.32,10.79-2.9,18.68-3.93C75.02,3.02,80.55,3.01,85.3,3
		c8.79-0.01,12.37,0.69,13.76,0.98c6.22,1.33,9.88,3.39,10.81,3.93c3.1,1.8,5.98,3.48,7.86,6.88c1.43,2.59,1.61,5,1.97,9.83
		c0.19,2.57,0.08,3.53,0,8.85c-0.07,4.69-0.05,8.13,0,11.8c0.09,6.94,0.33,5.87,0.79,17.23c0.33,8.04,0.33,11.41,2,12
		c1.04,0.37,2.48-0.8,4-2c2.6-2.05,2.82-3.58,4.02-3.64c1.74-0.09,4.37,2.97,3.98,5.64c-0.41,2.81-3.86,3.1-10,9
		c-2,1.92-2.64,2.85-3,4c-0.75,2.41,0.23,4.07,1.16,7.9c0.89,3.65,1.73,7.06,0.98,10.81c-0.75,3.79-2.8,6.41-3.93,7.86
		c-2.56,3.29-5.37,5-6.88,5.9c-3.66,2.18-7.02,3-10.81,3.93c-2,0.49-3.7,0.79-4.91,0.98c0,2.62,0,5.24,0,7.86c0,2.29,0,4.59,0,6.88
		c3.02-2.86,7.41-2.54,9.4-0.13c1.65,2,1.54,5.3,0,7c-0.59,0.65-1.56,1.24-9,1c-4.82-0.16-7.24-0.25-8-1c-2.04-2.01-0.44-5.38,0-14
		c0.17-3.32,0.1-6.09,0-8c-2.97,0.35-5.97,0.68-9,1c-3.36,0.36-6.7,0.69-10,1c-0.03,1.14-0.06,2.88,0,5c0.28,9.74,2,13,0,15
		c-0.77,0.77-3.18,0.84-8,1c-6.6,0.21-7.53-0.49-8-1c-1.55-1.66-1.7-4.95,0-7c1.99-2.4,6.21-2.69,9,0
		c0.06-3.89,0.12-7.78,0.18-11.67c-1.65,0.3-4.01,0.68-6.88,0.98c-6.61,0.7-10.31,1.09-14.74,0c-2.8-0.69-6.74-1.65-9.83-4.91
		c-4.35-4.61-4.25-10.89-5.9-10.81c-1.39,0.06-1.31,4.56-3.83,5.41c-1.84,0.62-4.87-0.77-6-3c-2.29-4.53,4.74-9.61,9-23
		c1.25-3.91,1.88-7.36,2-8c0.71-3.93,0.89-7.03,1-9c0.07-1.33,0.22-4.58,0-9c-0.28-5.58-0.96-9.47-2.17-16.32
		c-0.86-4.88-1.52-8.61-2.83-13.68c-0.44-1.7-1-3.72-3-11c-1.63-5.93-2.44-8.91-2.03-9.72C20.19,12.28,25.98,14.1,39.11,10.86z"/>
</g>
</svg>
