<?xml version="1.0" encoding="utf-8"?>
<!-- Generator: Adobe Illustrator 23.0.0, SVG Export Plug-In . SVG Version: 6.00 Build 0)  -->
<svg version="1.1" xmlns="http://www.w3.org/2000/svg" xmlns:xlink="http://www.w3.org/1999/xlink" x="0px" y="0px"
	 viewBox="0 0 200 150" style="enable-background:new 0 0 200 150;" xml:space="preserve">
<style type="text/css">
	.st0{fill:#F9A603;stroke:#F9A603;stroke-miterlimit:10;}
	.st1{fill:#F25C00;stroke:#F25C00;stroke-miterlimit:10;}
	.st2{fill:#B3C100;stroke:#000000;stroke-miterlimit:10;}
	.st3{fill:none;stroke:#000000;stroke-miterlimit:10;}
	.st4{stroke:#000000;stroke-miterlimit:10;}
</style>
<g id="Layer_3">
	<polygon class="st0" points="164.88,66.92 124.51,94.54 124.38,143.44 85.64,113.59 39.08,128.57 55.51,82.51 26.87,42.86 
		75.76,44.25 104.61,4.76 118.4,51.68 	"/>
</g>
<g id="Layer_2">
	<polygon class="st1" points="169.32,54.54 134.32,88.7 142.62,136.9 99.31,114.17 56.04,136.96 64.27,88.75 29.23,54.64 
		77.62,47.57 99.24,3.7 120.91,47.54 	"/>
</g>
<g id="Layer_1">
	<path class="st2" d="M68.17,46.28c16.94-5.16,46.92-12.66,54.69-1.45c2.03,2.93,1.13,5.1,0.99,15.51c-0.41,29.84,6.66,38.6,0,46.03
		c-2.38,2.66-9.05,4.47-22.66,6.3c-10.84,1.45-23.93,4.16-28.58,0.48c-6.8-5.38-4.66-17.55-3.45-24.71c0.23-1.36,0.4-2.61,0.54-3.83
		c0,0,0.6-5.34,0.45-10.22c-0.18-5.57-1.42-7.7-3.16-15.58c-0.69-3.13-1.59-7.73-2.26-13.49"/>
	<line class="st3" x1="110.05" y1="111.21" x2="110.05" y2="126.23"/>
	<line class="st3" x1="116.21" y1="126.23" x2="110.3" y2="126.23"/>
	<line class="st3" x1="92.31" y1="114.11" x2="92.31" y2="126.23"/>
	<line class="st3" x1="85.91" y1="126.23" x2="92.31" y2="126.23"/>
	<line class="st3" x1="124.81" y1="81.89" x2="129" y2="93.72"/>
	<line class="st3" x1="69.99" y1="85.18" x2="59.28" y2="72.47"/>
	<ellipse class="st4" cx="90.83" cy="64.06" rx="1.48" ry="1.45"/>
	<ellipse class="st4" cx="102.26" cy="62.61" rx="1.48" ry="1.45"/>
	<path class="st4" d="M86,74.48c-0.76,11.58,5.59,19.36,10.35,19.38c4.62,0.02,9.43-8.64,10.84-15.51c0.53-2.58,0.56-4.79,0.49-6.3"
		/>
</g>
</svg>
