<?xml version="1.0" encoding="utf-8"?>
<!-- Generator: Adobe Illustrator 23.0.0, SVG Export Plug-In . SVG Version: 6.00 Build 0)  -->
<svg version="1.1" id="Layer_1" xmlns="http://www.w3.org/2000/svg" xmlns:xlink="http://www.w3.org/1999/xlink" x="0px" y="0px"
	 viewBox="0 0 200 150" style="enable-background:new 0 0 200 150;" xml:space="preserve">
<style type="text/css">
	.st0{fill:#F9A603;stroke:#000000;stroke-miterlimit:10;}
	.st1{fill:none;stroke:#000000;stroke-miterlimit:10;}
	.st2{stroke:#000000;stroke-miterlimit:10;}
	.st3{fill:#B3C100;stroke:#000000;stroke-miterlimit:10;}
</style>
<path class="st0" d="M44.05,50.87c17.77-5.51,49.22-13.5,57.38-1.55c2.13,3.13,1.18,5.44,1.03,16.54c-0.43,31.83,6.99,41.18,0,49.11
	c-2.5,2.84-9.49,4.77-23.78,6.72c-11.37,1.55-25.11,4.44-29.98,0.52c-7.13-5.74-4.89-18.72-3.62-26.36
	c0.84-5.08,0.96-8.67,1.03-14.99c0.06-5.49-2.71-10.92-3.62-17.57c-0.52-3.78-2.52-6.65-2.07-13.44"/>
<line class="st1" x1="88.69" y1="120.14" x2="88.69" y2="136.16"/>
<line class="st1" x1="95.15" y1="136.16" x2="88.95" y2="136.16"/>
<line class="st1" x1="70.08" y1="123.24" x2="70.08" y2="136.16"/>
<line class="st1" x1="63.36" y1="136.16" x2="70.08" y2="136.16"/>
<circle class="st2" cx="96.53" cy="73.72" r="1.55"/>
<circle class="st2" cx="88.49" cy="75.17" r="1.55"/>
<path class="st3" d="M107.77,50.41c18.09-5.61,50.1-13.75,58.41-1.58c2.17,3.18,1.21,5.53,1.05,16.84c-0.44,32.4,7.11,41.92,0,49.99
	c-2.54,2.89-9.66,4.86-24.2,6.84c-11.58,1.58-25.56,4.52-30.52,0.53c-7.26-5.84-4.97-19.06-3.68-26.84
	c0.25-1.48,0.43-2.83,0.57-4.16c0,0,0.65-5.8,0.48-11.1c-0.19-6.04-1.51-8.37-3.38-16.92c-0.74-3.39-1.7-8.4-2.41-14.65"/>
<line class="st1" x1="152.5" y1="120.92" x2="152.5" y2="137.23"/>
<line class="st1" x1="159.08" y1="137.23" x2="152.76" y2="137.23"/>
<line class="st1" x1="133.56" y1="124.07" x2="133.56" y2="137.23"/>
<line class="st1" x1="126.72" y1="137.23" x2="133.56" y2="137.23"/>
<line class="st1" x1="126.5" y1="99.5" x2="98.5" y2="105.5"/>
<circle class="st2" cx="109.98" cy="73.72" r="1.58"/>
<circle class="st2" cx="117.18" cy="73.14" r="1.58"/>
<path class="st2" d="M109.5,84.5c2.67,0.33,5.33,0.67,8,1c0.08,0.66,0.53,5.44-3,9c-2.27,2.29-4.97,2.84-6,3"/>
<path class="st2" d="M103.5,85.5c-2.47,0.77-5.95,1.48-10,1c-3.6-0.42-5.69-1.56-6-1c-0.45,0.81,3.2,4.64,8,6
	c3.32,0.94,6.27,0.45,8,0"/>
<line class="st1" x1="85.27" y1="99.46" x2="119.5" y2="106.5"/>
</svg>
