<?xml version="1.0" encoding="utf-8"?>
<!-- Generator: Adobe Illustrator 23.0.0, SVG Export Plug-In . SVG Version: 6.00 Build 0)  -->
<svg version="1.1" xmlns="http://www.w3.org/2000/svg" xmlns:xlink="http://www.w3.org/1999/xlink" x="0px" y="0px"
	 viewBox="0 0 200 150" style="enable-background:new 0 0 200 150;" xml:space="preserve">
<style type="text/css">
	.st0{display:none;}
	.st1{display:inline;fill:#C69C6D;stroke:#754C24;stroke-miterlimit:10;}
	.st2{display:inline;fill:#A67C52;stroke:#8C6239;stroke-miterlimit:10;}
	.st3{fill:#B3C100;stroke:#000000;stroke-miterlimit:10;}
	.st4{fill:none;stroke:#000000;stroke-miterlimit:10;}
	.st5{stroke:#000000;stroke-miterlimit:10;}
	.st6{fill:#F9A603;stroke:#000000;stroke-miterlimit:10;}
	.st7{fill:#42210B;stroke:#000000;stroke-miterlimit:10;}
	.st8{display:inline;fill:none;stroke:#000000;stroke-miterlimit:10;}
	.st9{fill:none;stroke:#FF0000;stroke-width:3;stroke-miterlimit:10;}
</style>
<g id="Layer_2" class="st0">
	<path class="st1" d="M3.5,141.5c5.88-7.61,14.62-17.24,27-26c20.52-14.53,41-19.56,64-25c16.93-4,20.13-3.32,39-7
		c26.96-5.26,48.24-12.07,62-17"/>
	<path class="st2" d="M1.01,141.85c7.41-5.59,18-12.33,31.73-17.34c22.78-8.3,43.08-7.77,65.83-6.96
		c16.75,0.59,19.54,2.04,38.01,3.43c26.38,1.98,47.88,1.07,61.92-0.01"/>
</g>
<g id="Layer_1">
	<path class="st3" d="M21.78,38.73c21.25-6.59,58.86-16.15,68.62-1.85c2.55,3.74,1.42,6.5,1.24,19.78
		c-0.52,38.07,8.35,49.25,0,58.73c-2.99,3.39-11.35,5.71-28.44,8.04c-13.6,1.85-30.03,5.31-35.85,0.62
		c-8.53-6.87-5.84-22.39-4.33-31.53c1.01-6.08,1.15-10.37,1.24-17.93c0.07-6.57-3.24-13.06-4.33-21.02
		c-0.62-4.52-3.02-7.95-2.47-16.07"/>
	<line class="st4" x1="74.33" y1="121.56" x2="74.33" y2="140.73"/>
	<line class="st4" x1="82.06" y1="140.73" x2="74.64" y2="140.73"/>
	<line class="st4" x1="52.07" y1="125.27" x2="52.07" y2="140.73"/>
	<line class="st4" x1="44.04" y1="140.73" x2="52.07" y2="140.73"/>
	<line class="st4" x1="22.4" y1="96.84" x2="14.98" y2="116"/>
	<circle class="st5" cx="50.22" cy="69.64" r="1.85"/>
	<circle class="st5" cx="66.91" cy="67.78" r="1.85"/>
	<path class="st4" d="M46.51,77.06c-0.95,14.78,7.01,24.7,12.98,24.73c5.79,0.02,11.83-11.03,13.6-19.78
		c0.67-3.3,0.7-6.11,0.62-8.04"/>
	<path class="st6" d="M115.4,34.5L115.4,34.5c8.3-1.35,53.22-8.45,57.64-1.5c0.48,0.75,0.87,1.59,0.87,1.59
		c0.96,2.5,0.29,5.58,0.17,14.44c-0.43,30.83,7.02,39.89,0,47.57c-2.51,2.75-9.64,4-23.89,6.51c-18.01,3.17-27.13,3.97-32.71,1
		c-12.97-6.89-15.05-35.4-5.66-69.08"/>
	<line class="st4" x1="155.77" y1="101.85" x2="155.77" y2="117.06"/>
	<line class="st4" x1="161.9" y1="117.06" x2="156.02" y2="117.06"/>
	<line class="st4" x1="138.12" y1="104.79" x2="138.12" y2="117.06"/>
	<line class="st4" x1="131.74" y1="117.06" x2="138.12" y2="117.06"/>
	<line class="st4" x1="169.5" y1="73.9" x2="172.45" y2="88.61"/>
	<circle class="st5" cx="121.93" cy="56.73" r="1.47"/>
	<circle class="st5" cx="135.17" cy="55.26" r="1.47"/>
	<path class="st4" d="M120.46,74.39c2.37,1.48,4.5,2.14,5.89,2.45c2.03,0.46,3.57,0.81,4.9,0c0.67-0.41,0.82-0.81,2.45-2.94
		c0.81-1.05,1.5-1.9,1.96-2.45"/>
	<path class="st4" d="M132.72,47.91c0.69-0.28,2.34-0.85,4.41-0.49c1.67,0.29,2.84,1.03,3.43,1.47"/>
	<line class="st4" x1="125.5" y1="48.5" x2="118.5" y2="49.87"/>
	<path class="st7" d="M185.5,95.5"/>
	<line class="st4" x1="93.28" y1="88.67" x2="100.83" y2="98.46"/>
</g>
<g id="Layer_4" class="st0">
	<line class="st8" x1="106.57" y1="83.16" x2="103.66" y2="94.58"/>
</g>
<g id="Layer_5">
	<ellipse class="st9" cx="141.5" cy="71.5" rx="45" ry="63"/>
	<line class="st9" x1="169.5" y1="22.5" x2="108.5" y2="114.5"/>
	<line class="st4" x1="106.66" y1="84.12" x2="97.57" y2="91.62"/>
</g>
</svg>
