<?xml version="1.0" encoding="utf-8"?>
<!-- Generator: Adobe Illustrator 23.0.0, SVG Export Plug-In . SVG Version: 6.00 Build 0)  -->
<svg version="1.1" xmlns="http://www.w3.org/2000/svg" xmlns:xlink="http://www.w3.org/1999/xlink" x="0px" y="0px"
	 viewBox="0 0 150 150" style="enable-background:new 0 0 150 150;" xml:space="preserve">
<style type="text/css">
	.st0{display:none;}
	.st1{display:inline;fill:#F25C00;stroke:#000000;stroke-miterlimit:10;}
	.st2{display:inline;fill:none;stroke:#000000;stroke-miterlimit:10;}
	.st3{display:inline;fill:#42210B;stroke:#000000;stroke-miterlimit:10;}
	.st4{display:inline;fill:#F25C00;stroke:#000000;stroke-width:0.5;stroke-miterlimit:10;}
	.st5{fill:#F25C00;stroke:#000000;stroke-miterlimit:10;}
	.st6{fill:none;stroke:#000000;stroke-miterlimit:10;}
	.st7{fill:#42210B;stroke:#000000;stroke-miterlimit:10;}
	.st8{fill:#F25C00;stroke:#000000;stroke-width:0.5;stroke-miterlimit:10;}
</style>
<g id="Layer_1" class="st0">
	<path class="st1" d="M32.25,21.69c23.91-7.41,66.22-18.17,77.2-2.09c2.87,4.21,1.59,7.31,1.39,22.25c-0.58,42.83,9.4,55.4,0,66.07
		c-3.36,3.82-12.91,5.56-31.99,9.04c-24.75,4.52-37.26,6.67-43.81,1.39c-9.59-7.73-10.75-25.19-9.04-35.47
		c1.13-6.84,3.38-9.58,3.48-18.08c0.08-7.39-1.56-10.53-2.78-19.47c-0.7-5.08-1.31-12.42-0.7-21.56"/>
	<line class="st2" x1="87.19" y1="115.58" x2="87.19" y2="137.14"/>
	<line class="st2" x1="95.89" y1="137.14" x2="87.54" y2="137.14"/>
	<line class="st2" x1="62.16" y1="119.75" x2="62.16" y2="137.14"/>
	<line class="st2" x1="53.12" y1="137.14" x2="62.16" y2="137.14"/>
	<line class="st2" x1="112.9" y1="75.26" x2="133.11" y2="75.01"/>
	<line class="st2" x1="25.99" y1="82.89" x2="10.69" y2="66.89"/>
	<circle class="st3" cx="59.38" cy="48.81" r="2.09"/>
	<circle class="st3" cx="78.15" cy="46.73" r="2.09"/>
	<path class="st2" d="M64.94,66.89c3.36,2.11,6.38,3.03,8.35,3.48c2.88,0.65,5.06,1.15,6.95,0c0.95-0.58,1.16-1.15,3.48-4.17
		c1.15-1.5,2.13-2.69,2.78-3.48"/>
	
		<rect x="132.42" y="71.16" transform="matrix(0.9982 0.0606 -0.0606 0.9982 4.7221 -8.0149)" class="st4" width="4.21" height="5.4"/>
	
		<rect x="132.74" y="68.22" transform="matrix(0.9982 0.0606 -0.0606 0.9982 4.4627 -7.9571)" class="st4" width="1.39" height="2.78"/>
</g>
<g id="Layer_2" class="st0">
	<path class="st1" d="M32.25,21.69c23.91-7.41,66.22-18.17,77.2-2.09c2.87,4.21,1.59,7.31,1.39,22.25c-0.58,42.83,9.4,55.4,0,66.07
		c-3.36,3.82-12.91,5.56-31.99,9.04c-24.75,4.52-37.26,6.67-43.81,1.39c-9.59-7.73-10.75-25.19-9.04-35.47
		c1.13-6.84,3.38-9.58,3.48-18.08c0.08-7.39-1.56-10.53-2.78-19.47c-0.7-5.08-1.31-12.42-0.7-21.56"/>
	<line class="st2" x1="87.19" y1="115.58" x2="87.19" y2="137.14"/>
	<line class="st2" x1="95.89" y1="137.14" x2="87.54" y2="137.14"/>
	<line class="st2" x1="62.16" y1="119.75" x2="62.16" y2="137.14"/>
	<line class="st2" x1="53.12" y1="137.14" x2="62.16" y2="137.14"/>
	<line class="st2" x1="112.3" y1="75.4" x2="129.23" y2="64.35"/>
	<line class="st2" x1="25.99" y1="82.89" x2="10.69" y2="66.89"/>
	<circle class="st3" cx="59.38" cy="48.81" r="2.09"/>
	<circle class="st3" cx="78.15" cy="46.73" r="2.09"/>
	<path class="st2" d="M64.94,66.89c3.36,2.11,6.38,3.03,8.35,3.48c2.88,0.65,5.06,1.15,6.95,0c0.95-0.58,1.16-1.15,3.48-4.17
		c1.15-1.5,2.13-2.69,2.78-3.48"/>
	
		<rect x="127.7" y="59.92" transform="matrix(0.875 -0.4842 0.4842 0.875 -14.0905 70.6743)" class="st4" width="4.21" height="5.4"/>
	
		<rect x="125.91" y="58.22" transform="matrix(0.875 -0.4842 0.4842 0.875 -13.035 68.7522)" class="st4" width="1.39" height="2.78"/>
</g>
<g id="Layer_3">
	<path class="st5" d="M32.25,21.69c23.91-7.41,66.22-18.17,77.2-2.09c2.87,4.21,1.59,7.31,1.39,22.25c-0.58,42.83,9.4,55.4,0,66.07
		c-3.36,3.82-12.91,5.56-31.99,9.04c-24.75,4.52-37.26,6.67-43.81,1.39c-9.59-7.73-10.75-25.19-9.04-35.47
		c1.13-6.84,3.38-9.58,3.48-18.08c0.08-7.39-1.56-10.53-2.78-19.47c-0.7-5.08-1.31-12.42-0.7-21.56"/>
	<line class="st6" x1="87.19" y1="115.58" x2="87.19" y2="137.14"/>
	<line class="st6" x1="95.89" y1="137.14" x2="87.54" y2="137.14"/>
	<line class="st6" x1="62.16" y1="119.75" x2="62.16" y2="137.14"/>
	<line class="st6" x1="53.12" y1="137.14" x2="62.16" y2="137.14"/>
	<line class="st6" x1="112.5" y1="75.5" x2="122.12" y2="56.79"/>
	<line class="st6" x1="25.99" y1="82.89" x2="10.69" y2="66.89"/>
	<circle class="st7" cx="59.38" cy="48.81" r="2.09"/>
	<circle class="st7" cx="78.15" cy="46.73" r="2.09"/>
	<path class="st6" d="M64.94,66.89c3.36,2.11,6.38,3.03,8.35,3.48c2.88,0.65,5.06,1.15,6.95,0c0.95-0.58,1.16-1.15,3.48-4.17
		c1.15-1.5,2.13-2.69,2.78-3.48"/>
	
		<rect x="119.66" y="52.3" transform="matrix(0.5211 -0.8535 0.8535 0.5211 11.371 130.2687)" class="st8" width="4.21" height="5.4"/>
	
		<rect x="116.81" y="52.58" transform="matrix(0.5211 -0.8535 0.8535 0.5211 10.2109 126.1366)" class="st8" width="1.39" height="2.78"/>
</g>
</svg>
