<?xml version="1.0" encoding="utf-8"?>
<!-- Generator: Adobe Illustrator 23.0.0, SVG Export Plug-In . SVG Version: 6.00 Build 0)  -->
<svg version="1.1" xmlns="http://www.w3.org/2000/svg" xmlns:xlink="http://www.w3.org/1999/xlink" x="0px" y="0px"
	 viewBox="0 0 200 150" style="enable-background:new 0 0 200 150;" xml:space="preserve">
<style type="text/css">
	.st0{fill:#F9A603;stroke:#000000;stroke-miterlimit:10;}
	.st1{fill:none;stroke:#000000;stroke-miterlimit:10;}
	.st2{stroke:#000000;stroke-miterlimit:10;}
	.st3{fill:#B3C100;stroke:#000000;stroke-miterlimit:10;}
	.st4{fill:none;}
	.st5{fill:#F9A603;}
	.st6{font-family:'MyriadPro-Regular';}
	.st7{font-size:23px;}
	.st8{fill:#B3C100;}
</style>
<g id="Layer_1">
	<path class="st0" d="M17.05,49.87c17.77-5.51,49.22-13.5,57.38-1.55c2.13,3.13,1.18,5.44,1.03,16.54
		c-0.43,31.83,6.99,41.18,0,49.11c-2.5,2.84-9.49,4.77-23.78,6.72c-11.37,1.55-25.11,4.44-29.98,0.52
		c-7.13-5.74-4.89-18.72-3.62-26.36c0.84-5.08,0.96-8.67,1.03-14.99c0.06-5.49-2.71-10.92-3.62-17.57
		c-0.52-3.78-2.52-6.65-2.07-13.44"/>
	<line class="st1" x1="61.69" y1="119.14" x2="61.69" y2="135.16"/>
	<line class="st1" x1="68.15" y1="135.16" x2="61.95" y2="135.16"/>
	<line class="st1" x1="43.08" y1="122.24" x2="43.08" y2="135.16"/>
	<line class="st1" x1="36.36" y1="135.16" x2="43.08" y2="135.16"/>
	<line class="st1" x1="77.16" y1="91.96" x2="87.5" y2="83"/>
	<line class="st1" x1="32.27" y1="96.46" x2="26.07" y2="112.49"/>
	<circle class="st2" cx="69.53" cy="72.72" r="1.55"/>
	<circle class="st2" cx="55.49" cy="74.17" r="1.55"/>
	<path class="st3" d="M125.77,49.41c18.09-5.61,50.1-13.75,58.41-1.58c2.17,3.18,1.21,5.53,1.05,16.84
		c-0.44,32.4,7.11,41.92,0,49.99c-2.54,2.89-9.66,4.86-24.2,6.84c-11.58,1.58-25.56,4.52-30.52,0.53
		c-7.26-5.84-4.97-19.06-3.68-26.84c0.25-1.48,0.43-2.83,0.57-4.16c0,0,0.65-5.8,0.48-11.1c-0.19-6.04-1.51-8.37-3.38-16.92
		c-0.74-3.39-1.7-8.4-2.41-14.65"/>
	<line class="st1" x1="170.5" y1="119.92" x2="170.5" y2="136.23"/>
	<line class="st1" x1="177.08" y1="136.23" x2="170.76" y2="136.23"/>
	<line class="st1" x1="151.56" y1="123.07" x2="151.56" y2="136.23"/>
	<line class="st1" x1="144.72" y1="136.23" x2="151.56" y2="136.23"/>
	<line class="st1" x1="174.5" y1="93" x2="178.5" y2="106"/>
	<line class="st1" x1="127.5" y1="93" x2="113.5" y2="83"/>
	<circle class="st2" cx="139.98" cy="70.72" r="1.58"/>
	<circle class="st2" cx="150.18" cy="71.14" r="1.58"/>
	<path class="st2" d="M134.82,82.03c-0.81,12.58,5.97,21.03,11.05,21.05c4.93,0.02,10.07-9.39,11.58-16.84
		c0.57-2.8,0.6-5.2,0.53-6.84"/>
	<path class="st2" d="M50.82,85.03c-0.81,12.58,5.97,21.03,11.05,21.05c4.93,0.02,10.07-9.39,11.58-16.84
		c0.57-2.8,0.6-5.2,0.53-6.84"/>
</g>
<g id="Layer_2">
	<rect x="16" y="13" class="st4" width="47" height="23"/>
	<text transform="matrix(1 0 0 1 24.0215 29.3296)" class="st5 st6 st7">Hi!!</text>
</g>
<g id="Layer_3">
	<rect x="124" y="11" class="st4" width="56" height="23"/>
	<text transform="matrix(1 0 0 1 124.3545 27.3296)" class="st8 st6 st7">Hello!</text>
</g>
</svg>
