<?xml version="1.0" encoding="utf-8"?>
<!-- Generator: Adobe Illustrator 23.0.0, SVG Export Plug-In . SVG Version: 6.00 Build 0)  -->
<svg version="1.1" xmlns="http://www.w3.org/2000/svg" xmlns:xlink="http://www.w3.org/1999/xlink" x="0px" y="0px"
	 viewBox="0 0 150 150" style="enable-background:new 0 0 150 150;" xml:space="preserve">
<style type="text/css">
	.st0{fill:#007BFF;stroke:#000000;stroke-miterlimit:10;}
	.st1{fill:none;stroke:#000000;stroke-miterlimit:10;}
	.st2{fill:#42210B;stroke:#000000;stroke-miterlimit:10;}
	.st3{stroke:#000000;stroke-miterlimit:10;}
	.st4{display:none;}
	.st5{display:inline;fill:none;stroke:#000000;stroke-miterlimit:10;}
</style>
<g id="Layer_1">
	<path class="st0" d="M38.12,25.75c24.6-7.62,68.12-18.69,79.41-2.15c2.95,4.33,1.64,7.52,1.43,22.89c-0.6,44.05,9.67,56.99,0,67.96
		c-3.46,3.93-13.28,5.72-32.91,9.3c-25.46,4.65-38.33,6.86-45.07,1.43c-9.87-7.95-11.05-25.91-9.3-36.48
		c1.17-7.04,3.48-9.85,3.58-18.6c0.08-7.6-1.6-10.83-2.86-20.03c-0.72-5.23-1.35-12.77-0.72-22.18"/>
	<line class="st1" x1="94.63" y1="122.32" x2="94.63" y2="144.5"/>
	<line class="st1" x1="103.58" y1="144.5" x2="94.99" y2="144.5"/>
	<line class="st1" x1="68.88" y1="126.62" x2="68.88" y2="144.5"/>
	<line class="st1" x1="59.58" y1="144.5" x2="68.88" y2="144.5"/>
	<circle class="st2" cx="66.02" cy="53.65" r="2.15"/>
	<circle class="st2" cx="85.33" cy="51.5" r="2.15"/>
	<path class="st3" d="M79.61,77.25c8.69,0.28,16.46-5.95,15.74-8.58c-1.23-4.49-28.45-3.26-29.33,1.43
		C65.54,72.65,72.65,77.03,79.61,77.25z"/>
	<path class="st1" d="M81.75,40.85c1.01-0.43,3.4-1.28,6.43-0.81c2.44,0.38,4.16,1.45,5.04,2.07"/>
	<path class="st1" d="M60.39,44.18c0.81-0.73,2.8-2.32,5.82-2.85c2.43-0.43,4.41,0.01,5.44,0.32"/>
</g>
<g id="Layer_3" class="st4">
	<line class="st5" x1="120.39" y1="80.12" x2="133.98" y2="64.38"/>
	<line class="st5" x1="31.68" y1="88.7" x2="15.94" y2="72.25"/>
</g>
<g id="Layer_2" class="st4">
	<line class="st5" x1="120.77" y1="79.65" x2="139.6" y2="70.84"/>
	<line class="st5" x1="31.89" y1="88.77" x2="11.73" y2="78.18"/>
</g>
<g id="Layer_4" class="st4">
	<line class="st5" x1="120.79" y1="80.08" x2="127.57" y2="60.42"/>
	<line class="st5" x1="31.91" y1="88.65" x2="21.71" y2="68.3"/>
</g>
</svg>
