<?xml version="1.0" encoding="utf-8"?>
<!-- Generator: Adobe Illustrator 23.0.0, SVG Export Plug-In . SVG Version: 6.00 Build 0)  -->
<svg version="1.1" id="Layer_1" xmlns="http://www.w3.org/2000/svg" xmlns:xlink="http://www.w3.org/1999/xlink" x="0px" y="0px"
	 viewBox="0 0 150 150" style="enable-background:new 0 0 150 150;" xml:space="preserve">
<style type="text/css">
	.st0{fill:#009BFF;stroke:#000000;stroke-miterlimit:10;}
	.st1{fill:#007BFF;stroke:#000000;stroke-miterlimit:10;}
	.st2{fill:none;stroke:#000000;stroke-miterlimit:10;}
	.st3{fill:#42210B;stroke:#000000;stroke-miterlimit:10;}
</style>
<path class="st0" d="M15.95,60.83c2.87-0.06,7.27-0.33,12.55-1.33c8.92-1.7,11.42-3.85,19-4c9.88-0.2,12.56,3.3,13.15,4.17
	c0.32,0.47,0.53,0.87,0.67,1.23c1.88,4.9,0.52,9.88,0.13,11.2c-3.61,12.25,7.57,30.26,0.05,36.41c-0.56,0.46-2.13,1.01-5.28,2.11
	c-1,0.35-5.85,1.64-13.29,3.42c0,0-9.86,2.68-18.43,1.47c-1.08-0.15-2.07-0.47-3-1c-1.83-1.05-2.75-2.57-3-3
	c-1.21-2.06-1.14-4.06-1-7c0.06-1.33,0.38-3.22,1-7c0.92-5.59,0.99-6.01,1-7c0.01-2.38-0.37-4.12-1-7c-0.35-1.58-0.91-3.4-2-7
	c-1.52-4.99-1.76-5.51-2-7c-0.45-2.82-0.27-5.26,0-7"/>
<path class="st1" d="M97.11,61.65L97.11,61.65c6.03-0.98,38.62-6.13,41.83-1.09c0.35,0.54,0.63,1.15,0.63,1.15
	c0.7,1.82,0.21,4.05,0.12,10.48c-0.31,22.38,5.09,28.95,0,34.52c-1.82,1.99-6.99,2.9-17.34,4.72c-13.07,2.3-19.69,2.88-23.74,0.73
	c-9.41-5-10.92-25.69-4.1-50.13"/>
<line class="st2" x1="46.33" y1="113.38" x2="46.33" y2="124.41"/>
<line class="st2" x1="50.78" y1="124.41" x2="46.5" y2="124.5"/>
<line class="st2" x1="33.52" y1="115.51" x2="33.52" y2="124.41"/>
<line class="st2" x1="28.89" y1="124.41" x2="33.52" y2="124.41"/>
<line class="st2" x1="126.41" y1="110.53" x2="126.41" y2="121.56"/>
<line class="st2" x1="130.86" y1="121.56" x2="126.59" y2="121.56"/>
<line class="st2" x1="113.6" y1="112.67" x2="113.6" y2="121.56"/>
<line class="st2" x1="108.97" y1="121.56" x2="113.6" y2="121.56"/>
<line class="st2" x1="62.7" y1="87.4" x2="70.53" y2="75.65"/>
<line class="st2" x1="17.5" y1="98.07" x2="9.31" y2="88.46"/>
<line class="st2" x1="136.37" y1="90.24" x2="138.51" y2="100.92"/>
<line class="st2" x1="90.82" y1="97.01" x2="89.04" y2="105.19"/>
<circle class="st3" cx="101.85" cy="77.79" r="1.07"/>
<circle class="st3" cx="111.46" cy="76.72" r="1.07"/>
<circle class="st3" cx="41.7" cy="79.21" r="1.07"/>
<circle class="st3" cx="51.31" cy="78.14" r="1.07"/>
<path class="st2" d="M40.63,92.73c0.11-0.32,1.03-2.76,3.56-3.56c1.42-0.45,2.67-0.16,3.2,0"/>
<path class="st2" d="M99.72,90.24c3.08-0.95,6.17-1.9,9.25-2.85"/>
<line class="st2" x1="48.11" y1="74.58" x2="53.8" y2="75.3"/>
<line class="st2" x1="43.48" y1="75.65" x2="38.5" y2="77.79"/>
</svg>
