<?xml version="1.0" encoding="utf-8"?>
<!-- Generator: Adobe Illustrator 23.0.0, SVG Export Plug-In . SVG Version: 6.00 Build 0)  -->
<svg version="1.1" id="Layer_1" xmlns="http://www.w3.org/2000/svg" xmlns:xlink="http://www.w3.org/1999/xlink" x="0px" y="0px"
	 viewBox="0 0 150 75" style="enable-background:new 0 0 150 75;" xml:space="preserve">
<style type="text/css">
	.st0{fill:#009BFF;stroke:#000000;stroke-miterlimit:10;}
	.st1{fill:#B3C100;stroke:#000000;stroke-miterlimit:10;}
	.st2{fill:none;stroke:#000000;stroke-miterlimit:10;}
	.st3{stroke:#000000;stroke-miterlimit:10;}
</style>
<path class="st0" d="M12.58,8.87c2.87-0.06,7.27-0.33,12.55-1.33c8.92-1.7,11.42-3.85,19-4c9.88-0.2,12.56,3.3,13.15,4.17
	c0.32,0.47,0.53,0.87,0.67,1.23c1.88,4.9,0.52,9.88,0.13,11.2c-3.61,12.25,7.57,30.26,0.05,36.41c-0.56,0.46-2.13,1.01-5.28,2.11
	c-1,0.35-5.85,1.64-13.29,3.42c0,0-9.86,2.68-18.43,1.47c-1.08-0.15-2.07-0.47-3-1c-1.83-1.05-2.75-2.57-3-3
	c-1.21-2.06-1.14-4.06-1-7c0.06-1.33,0.38-3.22,1-7c0.92-5.59,0.99-6.01,1-7c0.01-2.38-0.37-4.12-1-7c-0.35-1.58-0.91-3.4-2-7
	c-1.52-4.99-1.76-5.51-2-7c-0.45-2.82-0.27-5.26,0-7"/>
<path class="st1" d="M93.74,9.69L93.74,9.69c6.03-0.98,38.62-6.13,41.83-1.09c0.35,0.54,0.63,1.15,0.63,1.15
	c0.7,1.82,0.21,4.05,0.12,10.48c-0.31,22.38,5.09,28.95,0,34.52c-1.82,1.99-6.99,2.9-17.34,4.72c-13.07,2.3-19.69,2.88-23.74,0.73
	c-9.41-5-10.92-25.69-4.1-50.13"/>
<line class="st2" x1="42.96" y1="61.42" x2="42.96" y2="72.45"/>
<line class="st2" x1="47.41" y1="72.45" x2="43.13" y2="72.54"/>
<line class="st2" x1="30.15" y1="63.55" x2="30.15" y2="72.45"/>
<line class="st2" x1="25.52" y1="72.45" x2="30.15" y2="72.45"/>
<line class="st2" x1="123.04" y1="58.57" x2="123.04" y2="69.6"/>
<line class="st2" x1="127.49" y1="69.6" x2="123.22" y2="69.6"/>
<line class="st2" x1="110.23" y1="60.71" x2="110.23" y2="69.6"/>
<line class="st2" x1="105.6" y1="69.6" x2="110.23" y2="69.6"/>
<line class="st2" x1="59.33" y1="35.44" x2="67.16" y2="23.69"/>
<line class="st2" x1="14.13" y1="46.11" x2="5.94" y2="36.5"/>
<line class="st2" x1="133" y1="38.28" x2="135.14" y2="48.96"/>
<line class="st2" x1="87.45" y1="45.05" x2="85.67" y2="53.23"/>
<circle class="st3" cx="98.48" cy="25.83" r="1.07"/>
<circle class="st3" cx="108.09" cy="24.76" r="1.07"/>
<circle class="st3" cx="38.33" cy="27.25" r="1.07"/>
<circle class="st3" cx="47.94" cy="26.18" r="1.07"/>
<path class="st2" d="M39.01,36.5c1.95,1.22,3.7,1.76,4.84,2.02c1.67,0.38,2.93,0.66,4.04,0c0.55-0.33,0.67-0.67,2.02-2.42
	c0.67-0.87,1.23-1.56,1.61-2.02"/>
<path class="st2" d="M96.82,35.5c1.95,1.22,3.7,1.76,4.84,2.02c1.67,0.38,2.93,0.66,4.04,0c0.55-0.33,0.67-0.67,2.02-2.42
	c0.67-0.87,1.23-1.56,1.61-2.02"/>
</svg>
