<?xml version="1.0" encoding="utf-8"?>
<!-- Generator: Adobe Illustrator 23.0.0, SVG Export Plug-In . SVG Version: 6.00 Build 0)  -->
<svg version="1.1" id="Layer_1" xmlns="http://www.w3.org/2000/svg" xmlns:xlink="http://www.w3.org/1999/xlink" x="0px" y="0px"
	 viewBox="0 0 200 150" style="enable-background:new 0 0 200 150;" xml:space="preserve">
<style type="text/css">
	.st0{fill:#007BFF;stroke:#000000;stroke-miterlimit:10;}
	.st1{fill:none;stroke:#000000;stroke-miterlimit:10;}
	.st2{stroke:#000000;stroke-miterlimit:10;}
	.st3{fill:#B3C100;stroke:#000000;stroke-miterlimit:10;}
	.st4{fill:none;stroke:#F25C00;stroke-miterlimit:10;}
</style>
<path class="st0" d="M114.95,61.01L114.95,61.01c7.4-1.2,47.42-7.53,51.36-1.34c0.42,0.67,0.77,1.41,0.77,1.41
	c0.86,2.23,0.26,4.98,0.15,12.86c-0.39,27.47,6.25,35.54,0,42.38c-2.24,2.45-8.59,3.57-21.28,5.8c-16.04,2.82-24.18,3.54-29.15,0.89
	c-11.55-6.14-13.41-31.54-5.04-61.55"/>
<line class="st1" x1="150.92" y1="121.02" x2="150.92" y2="134.56"/>
<line class="st1" x1="156.38" y1="134.56" x2="151.14" y2="134.56"/>
<line class="st1" x1="135.19" y1="123.64" x2="135.19" y2="134.56"/>
<line class="st1" x1="129.51" y1="134.56" x2="135.19" y2="134.56"/>
<line class="st1" x1="164.15" y1="97.11" x2="171.5" y2="86.5"/>
<line class="st1" x1="107.22" y1="104.41" x2="105.04" y2="114.46"/>
<circle class="st2" cx="125.77" cy="79.82" r="1.31"/>
<circle class="st2" cx="135.57" cy="79.51" r="1.31"/>
<path class="st3" d="M31.17,59.28c16.94-5.16,46.92-12.66,54.69-1.45c2.03,2.93,1.13,5.1,0.99,15.51c-0.41,29.84,6.66,38.6,0,46.03
	c-2.38,2.66-9.05,4.47-22.66,6.3c-10.84,1.45-23.93,4.16-28.58,0.48c-6.8-5.38-4.66-17.55-3.45-24.71c0.23-1.36,0.4-2.61,0.54-3.83
	c0,0,0.6-5.34,0.45-10.22c-0.18-5.57-1.42-7.7-3.16-15.58c-0.69-3.13-1.59-7.73-2.26-13.49"/>
<line class="st1" x1="73.05" y1="124.21" x2="73.05" y2="139.23"/>
<line class="st1" x1="79.21" y1="139.23" x2="73.3" y2="139.23"/>
<line class="st1" x1="55.31" y1="127.11" x2="55.31" y2="139.23"/>
<line class="st1" x1="48.91" y1="139.23" x2="55.31" y2="139.23"/>
<line class="st1" x1="87.81" y1="94.89" x2="92" y2="106.72"/>
<line class="st1" x1="32.99" y1="98.18" x2="22.28" y2="85.47"/>
<ellipse class="st2" cx="58.83" cy="77.06" rx="1.48" ry="1.45"/>
<ellipse class="st2" cx="70.26" cy="75.61" rx="1.48" ry="1.45"/>
<path class="st2" d="M54,87.48c-0.76,11.58,5.59,19.36,10.35,19.38c4.62,0.02,9.43-8.64,10.84-15.51c0.53-2.58,0.56-4.79,0.49-6.3"
	/>
<path class="st2" d="M122.5,94.5c0.27,0.83,1.5,4.23,5,6c3.83,1.94,7.6,0.53,9,0c5.35-2.01,7.54-6.91,8-8"/>
<path class="st4" d="M23.21,20.06c-0.36-0.14-3.95-1.43-6.54,0.55c-2.31,1.76-2.23,4.88-2.18,7.09c0.05,1.9,0.09,3.87,1.64,5.45
	c1.25,1.29,3.33,2.14,5.45,1.64c1.88-0.44,2.95-1.75,3.27-2.18"/>
<path class="st4" d="M28.29,20.06c-2.04,1.69-1.83,4.78-1.64,7.63c0.18,2.63,0.29,4.26,1.64,5.45c1.69,1.5,4.01,1.15,4.36,1.09
	c2.71-0.45,4.06-2.76,4.36-3.27c1.43-2.45,0.88-4.99,0.55-6.54c-0.34-1.58-0.69-3.2-2.18-4.36c-1.78-1.39-3.93-1.15-4.36-1.09
	C30.55,19.03,29.33,19.2,28.29,20.06z"/>
<path class="st4" d="M43.1,33.69c-0.21-2.11-0.41-3.81-0.55-4.91c-0.53-4.26-0.85-5.81,0-7.63c0.13-0.27,1.04-2.23,2.18-2.18
	c0.92,0.04,1.56,1.38,2.18,2.73c1.3,2.82,1.25,4.9,1.64,4.91c0.4,0,0.93-2.25,1.09-4.36c0.17-2.23-0.16-3.2,0.55-3.82
	c0.67-0.58,1.94-0.55,2.73,0c0.52,0.36,0.96,1.05,1.09,5.45c0.06,1.88,0.02,3.16,0,5.45c-0.01,1.62-0.01,2.94,0,3.82"/>
<path class="st4" d="M64,18.42c-1.64-0.53-3.38-0.09-4.36,1.09c-1.23,1.49-0.66,3.44-0.55,3.82c0.09,0.3,0.63,2,2.18,2.73
	c1.74,0.81,3.8-0.06,3.82,0c0.01,0.06-2.39,0.17-4.36,1.64c-0.67,0.5-2.09,1.55-2.18,3.27c-0.11,1.93,1.54,3.2,1.64,3.27
	c1.48,1.1,3.27,0.76,4.36,0.55c1.23-0.24,2.16-0.73,2.73-1.09"/>
<path class="st4" d="M77.5,18.4c-1.1,1.38-0.13,2.7,0,7.1c0.16,5.58-1.29,7.16,0,8.61c1.69,1.89,6.69,2.05,8.23-0.75
	c1.08-1.96,0.19-4.87-1.5-5.99c-1.59-1.05-3.64-0.34-3.74-0.75c-0.17-0.7,6.13-1.61,6.73-4.49c0.37-1.73-1.43-3.65-2.99-4.49
	C81.96,16.43,78.82,16.74,77.5,18.4z"/>
<path class="st4" d="M93.46,25.13c-0.85,0.54-2.79,1.94-3.74,4.49c-0.38,1.03-1.38,3.68,0,5.24c1.35,1.53,4.38,1.32,5.99,0
	c2.73-2.23-0.38-8.86,0-8.98c0.22-0.07,1.19,2.03,3.74,8.98"/>
<path class="st4" d="M109.17,24.38c-2.48-0.18-4.81,0.98-5.99,2.99c-0.93,1.59-1.33,4.03,0,5.99c0.08,0.12,1.77,2.51,4.49,2.24
	c1.62-0.16,2.67-1.16,2.99-1.5"/>
<path class="st4" d="M114.41,18.4c0,2.91,0,5.83,0,8.74c0,2.82,0,5.65,0,8.47"/>
<path class="st4" d="M119.64,33.36"/>
<path class="st4" d="M120.39,34.11c-2.94-1.08-5-3.72-5.24-6.73c-0.32-4.01,2.73-6.53,2.99-6.73"/>
<path class="st4" d="M139.63,17.41c-1.41-1.44-3.06-2.18-4.22-1.69c-1.45,0.61-1.57,2.9-1.69,5.07c-0.12,2.28-0.29,5.4,1.69,7.6
	c1.97,2.18,4.29,1.49,5.07,3.38c0.7,1.72-0.53,3.93-1.69,5.07c-2.11,2.09-5.8,2.42-9.29,0.84"/>
<path class="st4" d="M143.86,22.48L143.86,22.48c-0.39,0.69-3.3,6.05-0.84,10.13c0.18,0.3,1.67,2.72,3.38,2.53
	c2.22-0.24,3.14-4.73,3.38-5.91c0.4-1.96,1.05-5.15-0.84-6.76c-1.11-0.94-2.6-0.92-3.38-0.84"/>
<path class="st4" d="M153.99,21.63c-1.8,3.13-2.35,5.87-2.53,7.6c-0.22,2.02-0.39,3.88,0.84,5.07c0.84,0.81,2.19,1.18,3.38,0.84
	c1.32-0.38,1.96-1.51,2.53-2.53c1.75-3.12,0.95-6.34,0.84-6.76c-0.12-0.47-0.54-1.9-1.69-3.38c-0.6-0.77-1.22-1.32-1.69-1.69"/>
<path class="st4" d="M161.59,34.3c-1.19-11.92-0.64-14.22,0-14.36c1.63-0.34,5.18,13,6.76,12.67c1.13-0.24,0.56-7.36,0-12.67"/>
<path class="st4" d="M178.5,13.5c1.43,3.69,2.74,8.43,3,14c0.07,1.4,0.06,2.73,0,4"/>
<circle class="st4" cx="182" cy="35" r="0.5"/>
</svg>
